Input #0, mov,mp4,m4a,3gp,3g2,mj2, from 'https://commondatastorage.googleapis.com/gtv-videos-bucket/sample/ElephantsDream.mp4':
  Metadata:
    major_brand     : mp42
    minor_version   : 0
    compatible_brands: isomavc1mp42
    creation_time   : 2010-05-17T15:28:46.000000Z
  Duration: 00:10:53.80, start: 0.000000, bitrate: 2075 kb/s
  Stream #0:0(und): Audio: aac (LC) (mp4a / 0x6134706D), 44100 Hz, stereo, fltp, 125 kb/s (default)
    Metadata:
      creation_time   : 2010-05-17T15:28:46.000000Z
      handler_name    : (C) 2007 Google Inc. v08.13.2007.
      vendor_id       : [0][0][0][0]
  Stream #0:1(und): Video: h264 (High) (avc1 / 0x31637661), yuv420p, 1280x720 [SAR 1:1 DAR 16:9], 1947 kb/s, 24 fps, 24 tbr, 24k tbn, 48 tbc (default)
    Metadata:
      creation_time   : 2010-05-17T15:28:46.000000Z
      handler_name    : (C) 2007 Google Inc. v08.13.2007.
      vendor_id       : [0][0][0][0]
Stream mapping:
  Stream #0:1 -> #0:0 (h264 (native) -> h264 (h264_nvenc))
Press [q] to stop, [?] for help
Output #0, mp4, to './test_results/temp_tests_gpu/test_test_50_2/output.mp4':
  Metadata:
    major_brand     : mp42
    minor_version   : 0
    compatible_brands: isomavc1mp42
    encoder         : Lavf58.76.100
  Stream #0:0(und): Video: h264 (Main) (avc1 / 0x31637661), yuv420p(progressive), 1280x720 [SAR 1:1 DAR 16:9], q=2-31, 24 fps, 12288 tbn (default)
    Metadata:
      creation_time   : 2010-05-17T15:28:46.000000Z
      handler_name    : (C) 2007 Google Inc. v08.13.2007.
      vendor_id       : [0][0][0][0]
      encoder         : Lavc58.134.100 h264_nvenc
    Side data:
      cpb: bitrate max/min/avg: 3000000/0/0 buffer size: 4000000 vbv_delay: N/A
frame=    1 fps=0.0 q=0.0 size=       0kB time=00:00:00.00 bitrate=N/A speed=   0x    frame=  141 fps=0.0 q=23.0 size=     512kB time=00:00:05.75 bitrate= 729.5kbits/s speed=10.1x    frame=  436 fps=406 q=23.0 size=    2048kB time=00:00:18.04 bitrate= 929.9kbits/s speed=16.8x    frame=  650 fps=413 q=23.0 size=    2816kB time=00:00:26.95 bitrate= 855.7kbits/s speed=17.1x    frame=  776 fps=374 q=30.0 size=    4352kB time=00:00:32.20 bitrate=1106.9kbits/s speed=15.5x    frame=  912 fps=354 q=30.0 size=    5888kB time=00:00:37.87 bitrate=1273.5kbits/s speed=14.7x    frame= 1071 fps=348 q=28.0 size=    7680kB time=00:00:44.50 bitrate=1413.8kbits/s speed=14.5x    frame= 1334 fps=373 q=26.0 size=    9728kB time=00:00:55.45 bitrate=1437.0kbits/s speed=15.5x    [mp4 @ 0x5d9ad678f0c0] Starting second pass: moving the moov atom to the beginning of the file
frame= 1440 fps=345 q=27.0 Lsize=   11002kB time=00:00:59.95 bitrate=1503.2kbits/s speed=14.4x    
video:10995kB audio:0kB subtitle:0kB other streams:0kB global headers:0kB muxing overhead: 0.061230%
